<svg xmlns="http://www.w3.org/2000/svg" x="0px" y="0px" width="228px" height="228px" viewBox="0 0 228 228" xmlns:xlink="http://www.w3.org/1999/xlink"><polygon fill="#657768" points="62.364,82.248 73.831,104.828 66.227,104.828 78.534,119.236 70.229,119.236 81.936,135.246 64.326,135.246 64.258,145.752 60.07,145.752 60.003,135.246 42.393,135.246 54.099,119.236 45.794,119.236 58.102,104.828 50.497,104.828 61.964,82.248"><animate attributeName='opacity' calcMode='spline' dur='1.2' values='1;0;1;' keySplines='.5 0 .5 1;.5 0 .5 1' repeatCount='indefinite' begin='-.4'></animate></polygon><polygon fill="#657768" points="114.2,82.248 125.667,104.828 118.063,104.828 130.369,119.236 122.064,119.236 133.771,135.246 116.162,135.246 116.094,145.752 111.906,145.752 111.839,135.246 94.229,135.246 105.936,119.236 97.631,119.236 109.938,104.828 102.333,104.828 113.8,82.248 "><animate attributeName='opacity' calcMode='spline' dur='1.2' values='1;0;1;' keySplines='.5 0 .5 1;.5 0 .5 1' repeatCount='indefinite' begin='-.2'></animate></polygon><polygon fill="#657768" points="166.035,82.248 177.504,104.828 169.898,104.828 182.205,119.236 173.9,119.236 185.607,135.246 167.998,135.246 167.93,145.752 163.742,145.752 163.676,135.246 146.064,135.246 157.771,119.236 149.467,119.236 161.773,104.828 154.17,104.828 165.637,82.248"><animate attributeName='opacity' calcMode='spline' dur='1.2' values='1;0;1;' keySplines='.5 0 .5 1;.5 0 .5 1' repeatCount='indefinite' begin='0'></animate></polygon></svg>