<svg xmlns="http://www.w3.org/2000/svg" xmlns:xlink="http://www.w3.org/1999/xlink" x="0px" y="0px"
  width="50px" height="50px" viewBox="0 0 50 50" enable-background="new 0 0 50 50" xml:space="preserve">
<path fill-rule="evenodd" clip-rule="evenodd" fill="#838a72" d="M39.292,4.534c-0.11-0.376-0.192-0.639-0.266-0.903
  c-0.418-1.49,0.376-2.994,1.834-3.48c1.428-0.476,3.022,0.202,3.527,1.632c1.008,2.854,1.982,5.721,2.877,8.612
  c0.544,1.762-0.733,3.479-2.606,3.52c-2.865,0.063-5.733,0.046-8.599,0.002c-1.371-0.021-2.397-0.957-2.662-2.251
  c-0.251-1.226,0.395-2.358,1.85-3.126c-0.205-0.136-0.365-0.254-0.536-0.354C23.46,1.601,8.636,8.165,5.996,20.9
  C3.694,32.003,10.95,42.43,22.209,44.198c10.271,1.613,20.323-5.664,21.961-15.924c0.174-1.086,0.205-2.194,0.289-3.293
  c0.1-1.3,0.819-2.259,1.984-2.617c1.085-0.333,2.338-0.011,2.954,0.948C49.751,23.861,50,24.588,50,25.235
  c-0.012,11.207-7.683,21.035-18.626,23.93C17.505,52.834,3.358,44.045,0.5,29.983c-2.788-13.715,6.358-27.132,20.15-29.49
  c6.479-1.108,12.508,0.148,18.052,3.684C38.862,4.278,39.025,4.373,39.292,4.534z"/>
</svg>
